<?xml version="1.0" encoding="UTF-8" standalone="no"?>
<svg
   xmlns:dc="http://purl.org/dc/elements/1.1/"
   xmlns:cc="http://creativecommons.org/ns#"
   xmlns:rdf="http://www.w3.org/1999/02/22-rdf-syntax-ns#"
   xmlns:svg="http://www.w3.org/2000/svg"
   xmlns="http://www.w3.org/2000/svg"
   xmlns:sodipodi="http://sodipodi.sourceforge.net/DTD/sodipodi-0.dtd"
   xmlns:inkscape="http://www.inkscape.org/namespaces/inkscape"
   version="1.0"
   width="150pt"
   height="150pt"
   viewBox="0 0 150 150"
   preserveAspectRatio="xMidYMid meet"
   id="svg10"
   sodipodi:docname="logo.svg"
   inkscape:version="0.92.5 (2060ec1f9f, 2020-04-08)">
  <defs
     id="defs14" />
  <sodipodi:namedview
     pagecolor="#ffffff"
     bordercolor="#666666"
     borderopacity="1"
     objecttolerance="10"
     gridtolerance="10"
     guidetolerance="10"
     inkscape:pageopacity="0"
     inkscape:pageshadow="2"
     inkscape:window-width="1920"
     inkscape:window-height="1022"
     id="namedview12"
     showgrid="false"
     inkscape:zoom="2.6612111"
     inkscape:cx="44.831636"
     inkscape:cy="42.667444"
     inkscape:window-x="0"
     inkscape:window-y="0"
     inkscape:window-maximized="1"
     inkscape:current-layer="g8"
     fit-margin-top="0"
     fit-margin-left="0"
     fit-margin-right="0"
     fit-margin-bottom="0"
     inkscape:snap-nodes="true" />
  <metadata
     id="metadata2">
Created by potrace 1.16, written by Peter Selinger 2001-2019
<rdf:RDF>
  <cc:Work
     rdf:about="">
    <dc:format>image/svg+xml</dc:format>
    <dc:type
       rdf:resource="http://purl.org/dc/dcmitype/StillImage" />
    <dc:title></dc:title>
  </cc:Work>
</rdf:RDF>
</metadata>
  <g
     transform="matrix(0.1,0,0,-0.1,1452.0209,-136.62278)"
     id="g8"
     style="fill:#000000;stroke:none">
    <circle
       style="fill:#ffcc00;fill-opacity:0.91326527;stroke:#004895;stroke-width:2.75957751;stroke-miterlimit:4;stroke-dasharray:none;stroke-opacity:1"
       id="path912"
       cx="-13770.209"
       cy="2116.2278"
       r="748.62018"
       transform="scale(1,-1)" />
    <path
       style="fill:#483e37;stroke:none;stroke-width:0.2191363"
       d="m -13815.349,-1619.5558 -8.328,-41.6352 c -7.889,-39.4445 -8.547,-41.4177 -12.929,-40.1032 -2.411,0.8767 -20.38,8.7669 -39.443,17.5324 -19.285,8.9845 -35.72,16.2145 -36.595,16.2145 -1.097,0 10.738,-25.1985 25.858,-55.8774 15.12,-30.8983 27.172,-56.5383 26.734,-56.9766 -0.44,-0.4382 -8.109,9.4231 -16.874,22.1331 l -15.998,22.7899 -13.585,-5.2599 c -41.637,-15.5588 -88.972,-45.8 -122.717,-78.0128 l -23.008,-21.912 -22.352,-1.0965 c -94.886,-4.3828 -172.9,-69.2478 -192.183,-159.9703 -5.26,-24.5432 -4.165,-63.5477 2.192,-88.9677 15.996,-61.5772 63.328,-114.8287 122.056,-136.9615 l 18.409,-7.0128 15.56,-30.4592 c 35.06,-69.4663 81.738,-119.21 148.135,-158.8735 13.585,-7.889 15.12,-9.643 19.503,-21.4765 16.213,-43.3892 55.88,-85.6805 97.517,-104.088 l 12.051,-5.4785 v -21.9143 c 0,-14.4629 0.874,-21.914 2.409,-21.914 1.316,0 11.176,6.7925 21.913,15.3388 10.52,8.3272 19.943,15.3415 20.6,15.3415 0.878,0 6.138,-10.0803 11.835,-22.352 l 10.517,-22.352 8.548,23.4462 c 4.6,12.9291 8.983,23.4486 9.64,23.4486 0.878,0 10.3,-7.4508 21.478,-16.4355 l 20.157,-16.6545 v 17.0922 c 0,24.105 0.877,26.0783 12.932,30.6803 16.213,6.1357 46.456,27.8287 62.233,44.2637 16.438,17.5312 31.995,42.5127 39.227,63.3307 5.04,14.0248 5.26,14.2453 26.733,28.4893 42.732,28.0495 75.383,58.9472 102.775,97.5152 14.025,19.5031 33.748,54.1255 40.103,69.9031 3.945,9.8615 4.6,10.2995 21.694,16.8735 51.058,19.5032 97.955,66.8384 116.58,118.116 15.56,42.5125 15.56,94.228 0,136.7405 -27.392,75.1639 -105.182,130.8239 -182.757,131.0429 h -17.095 l -16.433,16.8735 c -43.609,44.4845 -101.68,79.7656 -159.535,96.8583 l -15.774,4.822 -0.228,28.9248 c -0.23,15.9969 -0.878,36.1574 -1.755,44.9229 l -1.315,16.2165 -41.197,-32.2122 c -22.791,-17.75 -41.636,-31.7752 -42.076,-31.3368 -0.437,0.22 -12.929,18.627 -28.049,40.5408 z m -282.212,-274.062 c 5.475,0.145 2.237,-5.8304 -6.391,-21.9917 -20.16,-37.6915 -32.652,-75.3818 -41.197,-122.2768 -3.945,-22.3519 -3.508,-96.2015 0.875,-118.7727 1.753,-9.4228 2.85,-17.0923 2.193,-17.0923 -0.436,0 -6.136,3.506 -12.491,7.6695 -15.12,10.0803 -37.912,34.4055 -46.677,49.526 -46.895,82.3951 -7.448,185.3885 83.712,216.9443 10.271,3.6157 16.691,5.9062 19.976,5.9937 z m 655.107,-2.9457 c 3.92,0.3417 24.702,-6.992 40.617,-14.6618 15.12,-7.2314 22.131,-12.7102 37.251,-27.8305 31.337,-31.3365 44.702,-62.8932 44.702,-105.4057 0,-27.6112 -4.162,-44.4832 -16.653,-68.3692 -4.82,-9.2036 -14.46,-23.2291 -21.692,-31.118 -13.588,-14.9011 -34.188,-31.3375 -36.38,-29.146 -0.657,0.8765 0.228,9.6434 1.755,19.5045 1.97,11.3949 3.068,34.4052 3.068,60.9207 -0.228,35.2808 -1.098,47.1133 -5.26,67.9312 -7.231,36.3768 -16.215,62.8928 -32.648,96.4208 -8.11,16.216 -14.903,30.2392 -15.343,31.1157 -0.2,0.3835 0,0.5896 0.583,0.6383 z m -470.052,-102.0018 c 12.245,-0.1034 24.129,-1.151 32.949,-3.1645 7.888,-1.972 22.571,-7.4489 32.871,-12.4892 25.42,-12.4905 54.129,-40.7592 68.372,-67.2745 l 10.08,-18.1888 9.202,17.7488 c 11.178,21.4752 33.528,46.2382 53.251,59.1673 7.672,5.04 22.352,12.0535 32.432,15.9979 15.997,5.9168 21.915,7.012 46.02,7.8885 32.652,1.0956 51.277,-3.0692 79.545,-17.7512 22.572,-11.6143 49.523,-37.69 61.578,-59.1652 25.857,-46.8951 27.392,-97.5171 3.942,-146.1653 -8.545,-17.9692 -12.708,-23.446 -30.02,-40.5387 -27.83,-27.6111 -55.88,-41.1983 -94.008,-46.0193 -18.189,-2.4107 -18.189,-2.1927 -11.394,-23.2298 6.792,-20.818 10.08,-61.3577 5.914,-69.2469 -1.972,-3.2868 -8.762,-6.1356 -28.269,-11.176 -82.173,-21.6943 -163.473,-23.008 -249.813,-4.6005 -12.492,2.6294 -24.327,5.9165 -26.298,7.4505 -8.545,6.3549 -5.48,60.4817 5.04,85.6827 1.751,3.9442 3.068,8.3268 3.068,9.4225 0,1.0957 -7.23,3.0668 -15.777,4.6008 -29.803,4.8209 -44.485,8.9852 -63.111,18.1889 -26.297,12.71 -54.345,40.7591 -67.494,67.2748 -19.94,40.1018 -22.791,79.7655 -8.986,121.4012 15.56,46.8951 58.946,87.2171 107.595,99.9271 11.216,2.9584 27.565,4.3904 43.311,4.2589 z m -27.971,-44.7085 c -2.712,-0.028 -5.424,-0.3365 -8.109,-0.9665 -31.335,-7.6699 -53.466,-46.677 -57.191,-99.9272 -1.535,-23.4475 2.848,-53.4707 11.176,-73.631 19.504,-48.429 59.387,-62.452 89.407,-31.5537 33.528,34.4047 40.977,116.3604 15.557,166.9809 -12.655,24.735 -31.852,39.2355 -50.84,39.0975 z m 336.951,-0.4195 c -2.92,0.048 -5.888,-0.2029 -8.903,-0.7682 -32.868,-5.9167 -56.757,-51.934 -56.757,-109.3475 0,-42.7317 9.422,-72.7545 29.585,-94.23 46.237,-49.5245 106.06,10.7388 101.02,101.6807 -3.231,59.7968 -30.488,102.0876 -64.945,102.665 z m -165.091,-206.9742 c -11.997,0 -23.94,-1.0963 -32.049,-3.2878 -19.723,-5.04 -39.446,-16.216 -53.031,-29.8025 -7.015,-7.0124 -12.712,-13.5867 -12.712,-14.6824 0,-1.0956 6.575,0.876 14.903,4.1632 51.494,21.6943 104.965,22.7908 157.56,3.0685 11.394,-4.1637 21.257,-7.2302 21.914,-6.5728 0.658,0.6575 -4.605,6.7923 -11.617,13.8046 -14.683,14.4632 -33.088,24.9814 -52.592,30.0214 -8.328,2.1915 -20.38,3.2878 -32.376,3.2878 z m 57.276,-45.7458 c -8.736,0.1083 -17.556,-1.1505 -22.488,-3.78 -23.885,-12.9292 -9.863,-34.1849 22.132,-33.9657 15.34,0.22 25.2,4.164 30.68,12.7103 4.82,7.0122 1.751,14.4629 -8.329,20.5985 -4.603,2.8489 -13.258,4.3272 -21.995,4.4369 z m -114.528,-0.053 c -11.395,0 -17.092,-1.095 -22.568,-4.382 -10.084,-6.1358 -13.149,-13.5863 -8.329,-20.5986 5.48,-8.5464 15.34,-12.4914 30.897,-12.4914 15.56,0 25.423,3.945 30.9,12.4914 3.068,4.3826 3.285,6.5746 1.315,10.7383 -4.383,9.642 -15.12,14.2423 -32.215,14.2423 z m 204.457,-139.369 c 0.438,-0.4381 -2.849,-7.67 -7.452,-16.6545 -11.393,-21.9136 -41.853,-52.5925 -63.33,-63.5495 -26.295,-13.5865 -44.707,-18.1888 -73.412,-18.1888 -28.706,0 -47.331,4.6003 -72.531,17.9678 -25.64,13.367 -51.497,38.788 -63.552,62.6737 -3.505,6.7933 -6.137,12.4917 -5.917,12.4917 0.437,0 12.929,-2.4109 28.049,-5.4785 74.945,-14.4632 164.133,-12.4907 234.476,5.2596 12.712,3.2869 23.449,5.6977 23.669,5.4785 z"
       id="path4-3"
       inkscape:connector-curvature="0" />
  </g>
</svg>
